<?xml version="1.0" encoding="utf-8"?>
<!-- Generator: Adobe Illustrator 13.0.0, SVG Export Plug-In . SVG Version: 6.00 Build 14948)  -->
<!DOCTYPE svg PUBLIC "-//W3C//DTD SVG 1.1//EN" "http://www.w3.org/Graphics/SVG/1.1/DTD/svg11.dtd">
<svg version="1.1" id="Capa_1" xmlns="http://www.w3.org/2000/svg" xmlns:xlink="http://www.w3.org/1999/xlink" x="0px" y="0px"
	 width="500px" height="500px" viewBox="0 0 500 500" enable-background="new 0 0 500 500" xml:space="preserve">
<g>
	<g>
		<g>
			<path d="M274.748,146.054c-4.758,0-8.619,3.861-8.619,8.62v8.619c0,4.759,3.861,8.62,8.619,8.62c4.759,0,8.62-3.861,8.62-8.62
				v-8.619C283.371,149.915,279.507,146.054,274.748,146.054z"/>
		</g>
	</g>
	<g>
		<g>
			<path d="M326.344,127.336l-3.947-22.697c-0.815-4.695-5.276-7.797-9.971-7.019c-4.69,0.815-7.827,5.281-7.014,9.971l3.818,21.966
				v112.492c0,11.547-7.885,21.417-19.169,24.009c-3.918,0.896-6.693,4.379-6.693,8.399v61.251h-94.826v-61.253
				c0-4.019-2.775-7.504-6.692-8.4c-11.284-2.586-19.17-12.456-19.17-24.008v-60.829c0.013-0.185,0.025-0.372,0.025-0.523
				c0.008-0.293,0-0.591-0.025-0.879v-33.762c0-4.753,3.867-8.62,8.62-8.62c1.801,0,4.233-0.258,7.31-0.581
				c4.22-0.447,11.279-1.202,14.216-0.707c4.711,0.788,9.138-2.384,9.926-7.082c0.786-4.694-2.384-9.138-7.076-9.925
				c-5.271-0.879-12.82-0.079-18.89,0.567c-2.154,0.226-4.599,0.488-5.487,0.488c-14.263,0-25.862,11.6-25.862,25.861v34.479
				c0,0.056,0,0.109,0,0.164c0,0.049,0,0.092,0,0.14v61.208c0,17.257,10.34,32.319,25.862,38.694v63.589
				c0,4.759,3.861,8.62,8.619,8.62H291.99c4.759,0,8.62-3.861,8.62-8.62v-63.581c15.522-6.38,25.862-21.436,25.862-38.695V128.817
				C326.472,128.319,326.429,127.824,326.344,127.336z"/>
		</g>
	</g>
	<g>
		<g>
			<path d="M218.716,94.329c-16.639,0-30.174,13.54-30.174,30.174v38.793c0,4.758,3.862,8.62,8.62,8.62s8.62-3.862,8.62-8.62
				v-38.793c0-7.13,5.801-12.932,12.931-12.932s12.932,5.802,12.932,12.932v0.022c0,4.758,3.861,8.607,8.619,8.607
				c4.759,0,8.62-3.872,8.62-8.63C248.886,107.866,235.351,94.329,218.716,94.329z"/>
		</g>
	</g>
	<g>
		<g>
			<path d="M311.351,41.108l-2.129-12.241c-0.429-16.266-13.797-29.365-30.163-29.365c-16.639,0-30.173,13.539-30.173,30.173
				c0,0.543,0.053,1.081,0.153,1.611l10.919,57.329c0.785,4.134,4.399,7.008,8.455,7.008c0.535,0,1.078-0.053,1.622-0.151
				c4.68-0.892,7.751-5.404,6.856-10.082l-10.749-56.427c0.371-6.802,6.021-12.219,12.913-12.219c7.13,0,12.932,5.801,12.932,12.931
				c0,0.495,0.043,0.987,0.134,1.476l2.245,12.913c0.815,4.695,5.276,7.814,9.971,7.016
				C309.025,50.263,312.168,45.798,311.351,41.108z"/>
		</g>
	</g>
	<g>
		<g>
			<path d="M300.61,335.708H162.679c-4.758,0-8.619,3.861-8.619,8.62v146.553c0,4.758,3.861,8.619,8.619,8.619H300.61
				c4.759,0,8.62-3.861,8.62-8.619V344.328C309.233,339.57,305.369,335.708,300.61,335.708z M291.99,482.261H171.3V352.95h120.69
				V482.261z"/>
		</g>
	</g>
	<g>
		<g>
			<path d="M342.409,31.247c-12.924-10.466-31.956-8.483-42.544,4.564L224.84,132.13c-2.922,3.758-2.255,9.176,1.506,12.103
				c3.758,2.917,9.173,2.245,12.1-1.505l74.922-96.186c4.496-5.543,12.651-6.392,18.189-1.896
				c5.539,4.491,6.393,12.651,1.901,18.185l-73.3,90.403c-2.995,3.698-2.433,9.125,1.268,12.126
				c1.599,1.293,3.519,1.922,5.428,1.922c2.508,0,4.995-1.091,6.692-3.195l73.298-90.4C357.317,60.764,355.33,41.727,342.409,31.247
				z"/>
		</g>
	</g>
</g>
</svg>
