<?xml version="1.0" encoding="utf-8"?>
<!-- Generator: Adobe Illustrator 13.0.0, SVG Export Plug-In . SVG Version: 6.00 Build 14948)  -->
<!DOCTYPE svg PUBLIC "-//W3C//DTD SVG 1.1//EN" "http://www.w3.org/Graphics/SVG/1.1/DTD/svg11.dtd">
<svg version="1.1" id="Capa_1" xmlns="http://www.w3.org/2000/svg" xmlns:xlink="http://www.w3.org/1999/xlink" x="0px" y="0px"
	 width="500px" height="500px" viewBox="0 0 500 500" enable-background="new 0 0 500 500" xml:space="preserve">
<g>
	<g>
		<g>
			<path d="M310.98,43.361c-16.927,0-30.702,13.777-30.702,30.702v74.563c0,4.842,3.929,8.771,8.771,8.771s8.771-3.93,8.771-8.771
				V74.061c0-7.255,5.901-13.158,13.156-13.158c7.256,0,13.157,5.903,13.157,13.158v189.784c0,11.75-8.021,21.793-19.505,24.43
				c-3.981,0.912-6.811,4.456-6.811,8.548v62.325h-96.487V296.82c0-4.089-2.83-7.635-6.813-8.548
				c-11.48-2.631-19.506-12.675-19.506-24.429v-62.282c0-24.35,19.809-44.166,44.161-44.166h21.629c4.841,0,8.771-3.93,8.771-8.771
				s-3.931-8.771-8.771-8.771h-21.627c-34.021,0-61.706,27.683-61.706,61.711v62.281c0,17.563,10.521,32.888,26.316,39.374v64.705
				c0,4.841,3.929,8.771,8.771,8.771h114.034c4.842,0,8.771-3.93,8.771-8.771v-64.703c15.795-6.491,26.313-21.811,26.313-39.373
				V74.061C341.683,57.135,327.906,43.361,310.98,43.361z"/>
		</g>
	</g>
	<g>
		<g>
			<path d="M267.12-0.5c-16.926,0-30.702,13.777-30.702,30.702v135.966c0,4.842,3.929,8.771,8.771,8.771
				c4.842,0,8.771-3.93,8.771-8.771V30.202c0-7.257,5.902-13.157,13.157-13.157s13.158,5.9,13.158,13.157v135.966
				c0,4.842,3.93,8.771,8.771,8.771s8.771-3.93,8.771-8.771V30.202C297.822,13.278,284.046-0.5,267.12-0.5z"/>
		</g>
	</g>
	<g>
		<g>
			<path d="M210.105,148.623c-4.844,0-8.771,3.93-8.771,8.771v26.315c0,4.842,3.93,8.771,8.771,8.771
				c4.841,0,8.771-3.93,8.771-8.771v-26.315C218.875,152.553,214.946,148.623,210.105,148.623z"/>
		</g>
	</g>
	<g>
		<g>
			<path d="M315.367,359.15H175.014c-4.842,0-8.771,3.932-8.771,8.771v122.808c0,4.842,3.929,8.771,8.771,8.771h140.353
				c4.842,0,8.771-3.932,8.771-8.771V367.921C324.138,363.079,320.209,359.15,315.367,359.15z M306.594,481.953H183.788V376.693
				h122.809v105.263L306.594,481.953L306.594,481.953z"/>
		</g>
	</g>
</g>
</svg>
