<?xml version="1.0" encoding="utf-8"?>
<!-- Generator: Adobe Illustrator 13.0.0, SVG Export Plug-In . SVG Version: 6.00 Build 14948)  -->
<!DOCTYPE svg PUBLIC "-//W3C//DTD SVG 1.1//EN" "http://www.w3.org/Graphics/SVG/1.1/DTD/svg11.dtd">
<svg version="1.1" id="Capa_1" xmlns="http://www.w3.org/2000/svg" xmlns:xlink="http://www.w3.org/1999/xlink" x="0px" y="0px"
	 width="500px" height="500px" viewBox="0 0 500 500" enable-background="new 0 0 500 500" xml:space="preserve">
<g>
	<g>
		<g>
			<path d="M279.934,68.469l-68.149-8.557c-0.506-0.068-1.018-0.08-1.518-0.055c-5.445-5.338-12.9-8.633-21.109-8.633
				c-13.521,0-24.996,8.939-28.82,21.219c-0.857,1.336-1.354,2.936-1.354,4.643V190.32c0,17.258,10.34,32.321,25.863,38.694v63.59
				c0,4.758,3.861,8.621,8.619,8.621h112.067c4.758,0,8.619-3.863,8.619-8.621v-63.59c15.523-6.379,25.863-21.434,25.863-38.694
				v-61.209C340.02,95.86,313.122,68.768,279.934,68.469z M322.778,190.324c0,11.547-7.881,21.418-19.168,24.01
				c-3.918,0.896-6.693,4.379-6.693,8.398v61.252H202.09v-61.252c0-4.018-2.775-7.502-6.693-8.398
				c-11.285-2.588-19.17-12.457-19.17-24.01V81.397c0-7.129,5.803-12.93,12.932-12.93c7.131,0,12.932,5.801,12.932,12.93
				c0,4.76,3.861,8.621,8.619,8.621s8.619-3.861,8.619-8.621v-3.158l58.97,7.404c0.354,0.049,0.715,0.068,1.074,0.068
				c23.936,0,43.404,19.471,43.404,43.405v61.207H322.778z"/>
		</g>
	</g>
	<g>
		<g>
			<path d="M210.711,59.844c-4.758,0-8.619,3.861-8.619,8.619v43.105c0,4.759,3.861,8.62,8.619,8.62c4.76,0,8.621-3.861,8.621-8.62
				V68.468C219.332,63.706,215.47,59.844,210.711,59.844z"/>
		</g>
	</g>
	<g>
		<g>
			<path d="M253.816,77.087c-4.758,0-8.621,3.861-8.621,8.619v25.863c0,4.759,3.863,8.62,8.621,8.62s8.618-3.861,8.618-8.62V85.706
				C262.434,80.948,258.574,77.087,253.816,77.087z"/>
		</g>
	</g>
	<g>
		<g>
			<path d="M288.298,77.087c-4.76,0-8.621,3.861-8.621,8.619v25.863c0,4.759,3.861,8.62,8.621,8.62c4.758,0,8.619-3.861,8.619-8.62
				V85.706C296.917,80.948,293.055,77.087,288.298,77.087z"/>
		</g>
	</g>
	<g>
		<g>
			<path d="M322.778,283.985H184.849c-4.758,0-8.619,3.861-8.619,8.619v146.553c0,4.758,3.861,8.619,8.619,8.619h137.929
				c4.758,0,8.619-3.861,8.619-8.619V292.604C331.401,287.846,327.536,283.985,322.778,283.985z M314.159,430.537h-120.69V301.227
				h120.69V430.537z"/>
		</g>
	</g>
</g>
</svg>
